<?xml version="1.0" encoding="UTF-8"?>
<svg xmlns="http://www.w3.org/2000/svg" xmlns:xlink="http://www.w3.org/1999/xlink" width="720" height="360" viewBox="0 0 720 360">
<defs>
<g>
<g id="glyph-0-0">
<path d="M 0.671875 -8.851562 L 0.671875 -10.050781 L 7.265625 -10.050781 L 7.265625 -9.078125 C 6.617188 -8.390625 5.976562 -7.472656 5.339844 -6.328125 C 4.703125 -5.183594 4.210938 -4.007812 3.863281 -2.800781 C 3.613281 -1.949219 3.453125 -1.015625 3.382812 0 L 2.097656 0 C 2.113281 -0.800781 2.269531 -1.769531 2.570312 -2.902344 C 2.871094 -4.039062 3.304688 -5.132812 3.867188 -6.1875 C 4.429688 -7.238281 5.027344 -8.128906 5.660156 -8.851562 Z M 0.671875 -8.851562 "/>
</g>
<g id="glyph-0-1">
<path d="M 0.828125 -7.738281 C 0.828125 -8.464844 1.007812 -9.082031 1.375 -9.59375 C 1.742188 -10.101562 2.273438 -10.355469 2.964844 -10.355469 C 3.605469 -10.355469 4.132812 -10.128906 4.554688 -9.671875 C 4.972656 -9.21875 5.183594 -8.546875 5.183594 -7.660156 C 5.183594 -6.800781 4.96875 -6.136719 4.546875 -5.671875 C 4.121094 -5.207031 3.601562 -4.972656 2.980469 -4.972656 C 2.363281 -4.972656 1.851562 -5.203125 1.441406 -5.660156 C 1.03125 -6.121094 0.828125 -6.8125 0.828125 -7.738281 M 3 -9.496094 C 2.691406 -9.496094 2.433594 -9.363281 2.226562 -9.09375 C 2.019531 -8.824219 1.917969 -8.332031 1.917969 -7.613281 C 1.917969 -6.960938 2.019531 -6.5 2.230469 -6.234375 C 2.4375 -5.96875 2.695312 -5.835938 3 -5.835938 C 3.316406 -5.835938 3.578125 -5.96875 3.78125 -6.238281 C 3.988281 -6.507812 4.089844 -6.996094 4.089844 -7.710938 C 4.089844 -8.367188 3.988281 -8.832031 3.777344 -9.097656 C 3.570312 -9.363281 3.3125 -9.496094 3 -9.496094 M 3.007812 0.375 L 8.578125 -10.355469 L 9.59375 -10.355469 L 4.042969 0.375 L 3.007812 0.375 M 7.410156 -2.390625 C 7.410156 -3.121094 7.59375 -3.742188 7.960938 -4.246094 C 8.328125 -4.753906 8.859375 -5.007812 9.558594 -5.007812 C 10.199219 -5.007812 10.726562 -4.78125 11.144531 -4.324219 C 11.566406 -3.867188 11.773438 -3.199219 11.773438 -2.3125 C 11.773438 -1.453125 11.5625 -0.789062 11.136719 -0.324219 C 10.714844 0.140625 10.191406 0.375 9.566406 0.375 C 8.949219 0.375 8.4375 0.144531 8.027344 -0.316406 C 7.617188 -0.777344 7.410156 -1.46875 7.410156 -2.390625 M 9.59375 -4.148438 C 9.277344 -4.148438 9.019531 -4.011719 8.8125 -3.746094 C 8.605469 -3.476562 8.503906 -2.980469 8.503906 -2.265625 C 8.503906 -1.617188 8.605469 -1.15625 8.816406 -0.890625 C 9.023438 -0.621094 9.28125 -0.484375 9.585938 -0.484375 C 9.90625 -0.484375 10.167969 -0.621094 10.375 -0.890625 C 10.582031 -1.15625 10.683594 -1.648438 10.683594 -2.363281 C 10.683594 -3.019531 10.578125 -3.480469 10.371094 -3.746094 C 10.164062 -4.015625 9.902344 -4.148438 9.59375 -4.148438 Z M 9.59375 -4.148438 "/>
</g>
<g id="glyph-0-2">
<path d="M 2.515625 -5.523438 C 1.996094 -5.710938 1.613281 -5.984375 1.363281 -6.335938 C 1.113281 -6.6875 0.988281 -7.109375 0.988281 -7.597656 C 0.988281 -8.339844 1.253906 -8.964844 1.785156 -9.46875 C 2.316406 -9.972656 3.027344 -10.226562 3.910156 -10.226562 C 4.800781 -10.226562 5.515625 -9.96875 6.058594 -9.449219 C 6.597656 -8.933594 6.871094 -8.304688 6.871094 -7.566406 C 6.871094 -7.09375 6.746094 -6.679688 6.5 -6.332031 C 6.25 -5.980469 5.875 -5.710938 5.371094 -5.523438 C 5.996094 -5.320312 6.46875 -4.988281 6.796875 -4.535156 C 7.125 -4.082031 7.285156 -3.539062 7.285156 -2.910156 C 7.285156 -2.039062 6.980469 -1.308594 6.363281 -0.714844 C 5.746094 -0.121094 4.9375 0.171875 3.933594 0.171875 C 2.925781 0.171875 2.117188 -0.125 1.5 -0.71875 C 0.882812 -1.3125 0.578125 -2.054688 0.578125 -2.945312 C 0.578125 -3.609375 0.746094 -4.160156 1.082031 -4.609375 C 1.414062 -5.054688 1.894531 -5.359375 2.515625 -5.523438 M 2.265625 -7.640625 C 2.265625 -7.160156 2.417969 -6.765625 2.730469 -6.460938 C 3.039062 -6.15625 3.441406 -6 3.9375 -6 C 4.421875 -6 4.816406 -6.152344 5.121094 -6.457031 C 5.429688 -6.761719 5.585938 -7.132812 5.585938 -7.570312 C 5.585938 -8.03125 5.425781 -8.414062 5.109375 -8.726562 C 4.792969 -9.039062 4.398438 -9.195312 3.925781 -9.195312 C 3.449219 -9.195312 3.050781 -9.042969 2.738281 -8.738281 C 2.421875 -8.433594 2.265625 -8.066406 2.265625 -7.640625 M 1.863281 -2.9375 C 1.863281 -2.582031 1.945312 -2.238281 2.113281 -1.902344 C 2.285156 -1.570312 2.535156 -1.3125 2.867188 -1.128906 C 3.203125 -0.945312 3.5625 -0.855469 3.945312 -0.855469 C 4.542969 -0.855469 5.035156 -1.046875 5.425781 -1.429688 C 5.8125 -1.816406 6.007812 -2.304688 6.007812 -2.898438 C 6.007812 -3.5 5.808594 -3.996094 5.40625 -4.390625 C 5.007812 -4.785156 4.507812 -4.980469 3.902344 -4.980469 C 3.316406 -4.980469 2.828125 -4.785156 2.441406 -4.398438 C 2.054688 -4.007812 1.863281 -3.523438 1.863281 -2.9375 Z M 1.863281 -2.9375 "/>
</g>
<g id="glyph-0-3">
<path d="M 0.597656 -2.6875 L 1.847656 -2.855469 C 1.992188 -2.144531 2.234375 -1.636719 2.582031 -1.324219 C 2.925781 -1.011719 3.347656 -0.855469 3.839844 -0.855469 C 4.429688 -0.855469 4.925781 -1.058594 5.332031 -1.464844 C 5.738281 -1.875 5.9375 -2.378906 5.9375 -2.980469 C 5.9375 -3.554688 5.75 -4.027344 5.375 -4.402344 C 5 -4.773438 4.523438 -4.960938 3.945312 -4.960938 C 3.710938 -4.960938 3.414062 -4.914062 3.0625 -4.820312 L 3.203125 -5.917969 C 3.285156 -5.910156 3.351562 -5.90625 3.402344 -5.90625 C 3.9375 -5.90625 4.414062 -6.042969 4.839844 -6.320312 C 5.269531 -6.597656 5.480469 -7.027344 5.480469 -7.605469 C 5.480469 -8.066406 5.324219 -8.445312 5.015625 -8.746094 C 4.703125 -9.046875 4.304688 -9.195312 3.8125 -9.195312 C 3.328125 -9.195312 2.921875 -9.042969 2.597656 -8.738281 C 2.273438 -8.433594 2.066406 -7.972656 1.972656 -7.363281 L 0.722656 -7.585938 C 0.875 -8.421875 1.222656 -9.074219 1.765625 -9.535156 C 2.304688 -9.996094 2.980469 -10.226562 3.785156 -10.226562 C 4.339844 -10.226562 4.851562 -10.105469 5.320312 -9.867188 C 5.789062 -9.628906 6.144531 -9.304688 6.394531 -8.890625 C 6.640625 -8.480469 6.765625 -8.042969 6.765625 -7.578125 C 6.765625 -7.136719 6.648438 -6.738281 6.410156 -6.375 C 6.175781 -6.015625 5.824219 -5.730469 5.363281 -5.515625 C 5.964844 -5.375 6.433594 -5.089844 6.765625 -4.652344 C 7.097656 -4.214844 7.265625 -3.664062 7.265625 -3.007812 C 7.265625 -2.117188 6.941406 -1.363281 6.292969 -0.746094 C 5.644531 -0.128906 4.824219 0.179688 3.835938 0.179688 C 2.941406 0.179688 2.199219 -0.0859375 1.609375 -0.617188 C 1.019531 -1.152344 0.679688 -1.839844 0.597656 -2.6875 Z M 0.597656 -2.6875 "/>
</g>
<g id="glyph-1-0">
<path d="M 4.667969 0 L 4.667969 -11.363281 L 0.421875 -11.363281 L 0.421875 -12.882812 L 10.632812 -12.882812 L 10.632812 -11.363281 L 6.371094 -11.363281 L 6.371094 0 Z M 4.667969 0 "/>
</g>
<g id="glyph-1-1">
<path d="M 1.1875 0 L 1.1875 -12.882812 L 2.769531 -12.882812 L 2.769531 -8.261719 C 3.507812 -9.117188 4.4375 -9.546875 5.5625 -9.546875 C 6.253906 -9.546875 6.855469 -9.410156 7.367188 -9.136719 C 7.875 -8.863281 8.238281 -8.488281 8.460938 -8.007812 C 8.679688 -7.527344 8.789062 -6.828125 8.789062 -5.914062 L 8.789062 0 L 7.207031 0 L 7.207031 -5.914062 C 7.207031 -6.707031 7.035156 -7.28125 6.691406 -7.640625 C 6.351562 -8.003906 5.863281 -8.183594 5.238281 -8.183594 C 4.769531 -8.183594 4.328125 -8.0625 3.914062 -7.816406 C 3.503906 -7.574219 3.207031 -7.246094 3.03125 -6.828125 C 2.855469 -6.414062 2.769531 -5.839844 2.769531 -5.105469 L 2.769531 0 Z M 1.1875 0 "/>
</g>
<g id="glyph-1-2">
<path d="M 7.578125 -3.007812 L 9.210938 -2.804688 C 8.953125 -1.847656 8.476562 -1.105469 7.777344 -0.578125 C 7.082031 -0.0546875 6.191406 0.210938 5.105469 0.210938 C 3.742188 0.210938 2.660156 -0.210938 1.859375 -1.050781 C 1.058594 -1.890625 0.660156 -3.070312 0.660156 -4.585938 C 0.660156 -6.15625 1.0625 -7.375 1.871094 -8.242188 C 2.679688 -9.109375 3.730469 -9.546875 5.019531 -9.546875 C 6.265625 -9.546875 7.285156 -9.121094 8.078125 -8.269531 C 8.867188 -7.421875 9.265625 -6.226562 9.265625 -4.683594 C 9.265625 -4.589844 9.261719 -4.449219 9.253906 -4.261719 L 2.292969 -4.261719 C 2.351562 -3.238281 2.640625 -2.453125 3.164062 -1.90625 C 3.683594 -1.363281 4.335938 -1.089844 5.117188 -1.089844 C 5.695312 -1.089844 6.191406 -1.242188 6.601562 -1.546875 C 7.011719 -1.851562 7.335938 -2.335938 7.578125 -3.007812 M 2.382812 -5.5625 L 7.59375 -5.5625 C 7.523438 -6.347656 7.324219 -6.9375 6.996094 -7.328125 C 6.492188 -7.9375 5.839844 -8.242188 5.035156 -8.242188 C 4.308594 -8.242188 3.699219 -8 3.203125 -7.515625 C 2.707031 -7.027344 2.433594 -6.378906 2.382812 -5.5625 Z M 2.382812 -5.5625 "/>
</g>
<g id="glyph-1-3">
<path d="M 1.1875 0 L 1.1875 -9.335938 L 2.601562 -9.335938 L 2.601562 -8.023438 C 2.894531 -8.480469 3.285156 -8.847656 3.769531 -9.128906 C 4.257812 -9.40625 4.808594 -9.546875 5.429688 -9.546875 C 6.121094 -9.546875 6.691406 -9.402344 7.132812 -9.113281 C 7.574219 -8.828125 7.886719 -8.425781 8.070312 -7.910156 C 8.804688 -9 9.765625 -9.546875 10.953125 -9.546875 C 11.875 -9.546875 12.589844 -9.289062 13.085938 -8.777344 C 13.585938 -8.261719 13.835938 -7.472656 13.835938 -6.40625 L 13.835938 0 L 12.261719 0 L 12.261719 -5.878906 C 12.261719 -6.511719 12.210938 -6.96875 12.105469 -7.246094 C 12.003906 -7.523438 11.816406 -7.75 11.546875 -7.917969 C 11.277344 -8.089844 10.960938 -8.171875 10.601562 -8.171875 C 9.941406 -8.171875 9.398438 -7.957031 8.964844 -7.519531 C 8.53125 -7.082031 8.3125 -6.382812 8.3125 -5.421875 L 8.3125 0 L 6.734375 0 L 6.734375 -6.0625 C 6.734375 -6.765625 6.601562 -7.292969 6.34375 -7.648438 C 6.085938 -7.996094 5.664062 -8.171875 5.078125 -8.171875 C 4.632812 -8.171875 4.222656 -8.054688 3.84375 -7.820312 C 3.46875 -7.585938 3.191406 -7.246094 3.023438 -6.792969 C 2.851562 -6.34375 2.769531 -5.691406 2.769531 -4.84375 L 2.769531 0 Z M 1.1875 0 "/>
</g>
<g id="glyph-1-4">
<path d="M 7.277344 -1.152344 C 6.691406 -0.652344 6.128906 -0.300781 5.585938 -0.0976562 C 5.042969 0.109375 4.460938 0.210938 3.839844 0.210938 C 2.816406 0.210938 2.027344 -0.0390625 1.476562 -0.539062 C 0.925781 -1.042969 0.648438 -1.679688 0.648438 -2.460938 C 0.648438 -2.917969 0.753906 -3.335938 0.960938 -3.714844 C 1.171875 -4.089844 1.441406 -4.394531 1.78125 -4.625 C 2.117188 -4.851562 2.496094 -5.023438 2.917969 -5.140625 C 3.226562 -5.222656 3.695312 -5.300781 4.324219 -5.378906 C 5.601562 -5.53125 6.542969 -5.710938 7.144531 -5.921875 C 7.152344 -6.140625 7.15625 -6.277344 7.15625 -6.335938 C 7.15625 -6.980469 7.003906 -7.433594 6.707031 -7.699219 C 6.300781 -8.054688 5.699219 -8.234375 4.90625 -8.234375 C 4.160156 -8.234375 3.609375 -8.105469 3.257812 -7.84375 C 2.902344 -7.582031 2.640625 -7.121094 2.46875 -6.460938 L 0.921875 -6.671875 C 1.0625 -7.332031 1.292969 -7.867188 1.617188 -8.273438 C 1.9375 -8.683594 2.40625 -8.996094 3.015625 -9.214844 C 3.625 -9.433594 4.328125 -9.546875 5.132812 -9.546875 C 5.929688 -9.546875 6.578125 -9.449219 7.074219 -9.265625 C 7.574219 -9.074219 7.9375 -8.839844 8.171875 -8.554688 C 8.40625 -8.273438 8.570312 -7.914062 8.664062 -7.480469 C 8.71875 -7.210938 8.746094 -6.722656 8.746094 -6.019531 L 8.746094 -3.910156 C 8.746094 -2.441406 8.777344 -1.511719 8.847656 -1.121094 C 8.914062 -0.730469 9.046875 -0.355469 9.246094 0 L 7.59375 0 C 7.429688 -0.328125 7.324219 -0.710938 7.277344 -1.152344 M 7.144531 -4.683594 C 6.570312 -4.449219 5.710938 -4.25 4.5625 -4.085938 C 3.910156 -3.992188 3.449219 -3.886719 3.179688 -3.769531 C 2.910156 -3.652344 2.703125 -3.480469 2.558594 -3.257812 C 2.410156 -3.03125 2.335938 -2.78125 2.335938 -2.503906 C 2.335938 -2.082031 2.496094 -1.730469 2.816406 -1.449219 C 3.136719 -1.167969 3.601562 -1.027344 4.21875 -1.027344 C 4.828125 -1.027344 5.371094 -1.160156 5.84375 -1.429688 C 6.320312 -1.695312 6.667969 -2.058594 6.890625 -2.523438 C 7.058594 -2.878906 7.144531 -3.40625 7.144531 -4.105469 Z M 7.144531 -4.683594 "/>
</g>
<g id="glyph-1-5">
<path d="M 1.625 -7.53125 L 1.625 -9.335938 L 3.429688 -9.335938 L 3.429688 -7.53125 L 1.625 -7.53125 M 1.625 0 L 1.625 -1.800781 L 3.429688 -1.800781 L 3.429688 0 Z M 1.625 0 "/>
</g>
<g id="glyph-1-6">
</g>
<g id="glyph-1-7">
<path d="M 9.84375 -12.882812 L 11.546875 -12.882812 L 11.546875 -5.441406 C 11.546875 -4.144531 11.402344 -3.117188 11.109375 -2.355469 C 10.816406 -1.59375 10.289062 -0.972656 9.523438 -0.496094 C 8.757812 -0.0195312 7.753906 0.21875 6.511719 0.21875 C 5.304688 0.21875 4.316406 0.0117188 3.550781 -0.40625 C 2.78125 -0.820312 2.234375 -1.421875 1.90625 -2.210938 C 1.578125 -3 1.414062 -4.074219 1.414062 -5.441406 L 1.414062 -12.882812 L 3.121094 -12.882812 L 3.121094 -5.449219 C 3.121094 -4.328125 3.222656 -3.503906 3.433594 -2.976562 C 3.640625 -2.445312 3.996094 -2.035156 4.503906 -1.75 C 5.011719 -1.460938 5.628906 -1.320312 6.363281 -1.320312 C 7.617188 -1.320312 8.511719 -1.601562 9.042969 -2.171875 C 9.578125 -2.738281 9.84375 -3.832031 9.84375 -5.449219 Z M 9.84375 -12.882812 "/>
</g>
<g id="glyph-1-8">
<path d="M 1.5625 0 L 1.5625 -8.101562 L 0.167969 -8.101562 L 0.167969 -9.335938 L 1.5625 -9.335938 L 1.5625 -10.328125 C 1.5625 -10.953125 1.621094 -11.417969 1.730469 -11.726562 C 1.882812 -12.132812 2.152344 -12.46875 2.535156 -12.722656 C 2.917969 -12.976562 3.457031 -13.105469 4.148438 -13.105469 C 4.59375 -13.105469 5.085938 -13.050781 5.625 -12.945312 L 5.386719 -11.566406 C 5.058594 -11.625 4.75 -11.65625 4.457031 -11.65625 C 3.976562 -11.65625 3.636719 -11.550781 3.4375 -11.347656 C 3.238281 -11.140625 3.136719 -10.757812 3.136719 -10.195312 L 3.136719 -9.335938 L 4.957031 -9.335938 L 4.957031 -8.101562 L 3.136719 -8.101562 L 3.136719 0 Z M 1.5625 0 "/>
</g>
<g id="glyph-1-9">
<path d="M 1.152344 0 L 1.152344 -12.882812 L 2.734375 -12.882812 L 2.734375 0 Z M 1.152344 0 "/>
</g>
<g id="glyph-1-10">
<path d="M 7.242188 0 L 7.242188 -1.179688 C 6.648438 -0.253906 5.78125 0.210938 4.632812 0.210938 C 3.886719 0.210938 3.203125 0.00390625 2.578125 -0.40625 C 1.957031 -0.8125 1.472656 -1.386719 1.128906 -2.121094 C 0.785156 -2.859375 0.617188 -3.703125 0.617188 -4.65625 C 0.617188 -5.589844 0.769531 -6.433594 1.082031 -7.195312 C 1.390625 -7.953125 1.855469 -8.535156 2.476562 -8.9375 C 3.097656 -9.34375 3.792969 -9.546875 4.5625 -9.546875 C 5.125 -9.546875 5.625 -9.425781 6.0625 -9.1875 C 6.503906 -8.953125 6.859375 -8.640625 7.136719 -8.261719 L 7.136719 -12.882812 L 8.710938 -12.882812 L 8.710938 0 L 7.242188 0 M 2.242188 -4.65625 C 2.242188 -3.460938 2.492188 -2.570312 2.996094 -1.976562 C 3.5 -1.386719 4.09375 -1.089844 4.78125 -1.089844 C 5.472656 -1.089844 6.058594 -1.371094 6.542969 -1.9375 C 7.027344 -2.503906 7.269531 -3.367188 7.269531 -4.527344 C 7.269531 -5.804688 7.023438 -6.742188 6.53125 -7.339844 C 6.039062 -7.9375 5.429688 -8.234375 4.710938 -8.234375 C 4.007812 -8.234375 3.421875 -7.949219 2.949219 -7.375 C 2.476562 -6.800781 2.242188 -5.894531 2.242188 -4.65625 Z M 2.242188 -4.65625 "/>
</g>
<g id="glyph-1-11">
<path d="M 0.808594 -4.140625 L 2.417969 -4.28125 C 2.492188 -3.636719 2.671875 -3.105469 2.949219 -2.695312 C 3.226562 -2.28125 3.660156 -1.945312 4.246094 -1.691406 C 4.832031 -1.4375 5.488281 -1.308594 6.222656 -1.308594 C 6.871094 -1.308594 7.445312 -1.40625 7.945312 -1.601562 C 8.441406 -1.792969 8.8125 -2.058594 9.058594 -2.394531 C 9.300781 -2.730469 9.421875 -3.097656 9.421875 -3.5 C 9.421875 -3.902344 9.304688 -4.253906 9.070312 -4.558594 C 8.835938 -4.859375 8.449219 -5.113281 7.910156 -5.316406 C 7.5625 -5.453125 6.800781 -5.660156 5.617188 -5.945312 C 4.433594 -6.230469 3.601562 -6.496094 3.128906 -6.75 C 2.515625 -7.070312 2.054688 -7.472656 1.753906 -7.949219 C 1.453125 -8.425781 1.300781 -8.960938 1.300781 -9.554688 C 1.300781 -10.203125 1.484375 -10.8125 1.855469 -11.378906 C 2.222656 -11.941406 2.761719 -12.371094 3.472656 -12.664062 C 4.179688 -12.957031 4.96875 -13.105469 5.835938 -13.105469 C 6.789062 -13.105469 7.632812 -12.949219 8.363281 -12.644531 C 9.09375 -12.335938 9.652344 -11.882812 10.046875 -11.285156 C 10.4375 -10.6875 10.648438 -10.011719 10.679688 -9.253906 L 9.042969 -9.132812 C 8.957031 -9.945312 8.660156 -10.5625 8.152344 -10.976562 C 7.644531 -11.394531 6.894531 -11.601562 5.90625 -11.601562 C 4.875 -11.601562 4.125 -11.414062 3.652344 -11.035156 C 3.179688 -10.65625 2.945312 -10.199219 2.945312 -9.667969 C 2.945312 -9.203125 3.109375 -8.824219 3.445312 -8.523438 C 3.773438 -8.226562 4.628906 -7.921875 6.015625 -7.605469 C 7.402344 -7.292969 8.351562 -7.019531 8.867188 -6.785156 C 9.617188 -6.4375 10.171875 -6 10.53125 -5.472656 C 10.886719 -4.941406 11.066406 -4.328125 11.066406 -3.640625 C 11.066406 -2.953125 10.867188 -2.308594 10.476562 -1.699219 C 10.082031 -1.09375 9.519531 -0.621094 8.785156 -0.285156 C 8.050781 0.0507812 7.222656 0.21875 6.300781 0.21875 C 5.136719 0.21875 4.160156 0.0507812 3.371094 -0.289062 C 2.582031 -0.628906 1.964844 -1.140625 1.515625 -1.824219 C 1.066406 -2.507812 0.832031 -3.277344 0.808594 -4.140625 Z M 0.808594 -4.140625 "/>
</g>
<g id="glyph-1-12">
<path d="M 2.644531 0 L 1.179688 0 L 1.179688 -12.882812 L 2.757812 -12.882812 L 2.757812 -8.289062 C 3.429688 -9.125 4.28125 -9.546875 5.316406 -9.546875 C 5.890625 -9.546875 6.433594 -9.429688 6.949219 -9.199219 C 7.460938 -8.964844 7.882812 -8.640625 8.214844 -8.222656 C 8.542969 -7.804688 8.804688 -7.296875 8.992188 -6.707031 C 9.179688 -6.113281 9.273438 -5.480469 9.273438 -4.808594 C 9.273438 -3.207031 8.875 -1.972656 8.085938 -1.097656 C 7.296875 -0.226562 6.34375 0.210938 5.238281 0.210938 C 4.136719 0.210938 3.273438 -0.25 2.644531 -1.167969 L 2.644531 0 M 2.628906 -4.738281 C 2.628906 -3.617188 2.78125 -2.808594 3.085938 -2.3125 C 3.582031 -1.496094 4.257812 -1.089844 5.105469 -1.089844 C 5.796875 -1.089844 6.394531 -1.390625 6.898438 -1.992188 C 7.402344 -2.589844 7.65625 -3.484375 7.65625 -4.675781 C 7.65625 -5.894531 7.414062 -6.792969 6.929688 -7.375 C 6.445312 -7.953125 5.863281 -8.242188 5.175781 -8.242188 C 4.484375 -8.242188 3.886719 -7.945312 3.382812 -7.34375 C 2.878906 -6.742188 2.628906 -5.875 2.628906 -4.738281 Z M 2.628906 -4.738281 "/>
</g>
<g id="glyph-1-13">
<path d="M 0.554688 -2.785156 L 2.117188 -3.03125 C 2.207031 -2.40625 2.449219 -1.925781 2.851562 -1.589844 C 3.253906 -1.257812 3.8125 -1.089844 4.535156 -1.089844 C 5.261719 -1.089844 5.800781 -1.238281 6.152344 -1.535156 C 6.503906 -1.828125 6.679688 -2.175781 6.679688 -2.574219 C 6.679688 -2.933594 6.523438 -3.214844 6.214844 -3.417969 C 5.996094 -3.558594 5.457031 -3.738281 4.597656 -3.953125 C 3.4375 -4.246094 2.632812 -4.5 2.183594 -4.714844 C 1.734375 -4.929688 1.394531 -5.226562 1.164062 -5.601562 C 0.933594 -5.980469 0.816406 -6.398438 0.816406 -6.855469 C 0.816406 -7.269531 0.914062 -7.65625 1.101562 -8.011719 C 1.292969 -8.367188 1.550781 -8.660156 1.882812 -8.894531 C 2.125 -9.074219 2.460938 -9.230469 2.886719 -9.355469 C 3.3125 -9.480469 3.765625 -9.546875 4.253906 -9.546875 C 4.984375 -9.546875 5.628906 -9.4375 6.183594 -9.226562 C 6.738281 -9.015625 7.144531 -8.730469 7.410156 -8.371094 C 7.671875 -8.011719 7.855469 -7.527344 7.953125 -6.925781 L 6.40625 -6.714844 C 6.335938 -7.195312 6.132812 -7.570312 5.796875 -7.839844 C 5.460938 -8.109375 4.984375 -8.242188 4.367188 -8.242188 C 3.640625 -8.242188 3.121094 -8.125 2.8125 -7.882812 C 2.5 -7.644531 2.347656 -7.363281 2.347656 -7.039062 C 2.347656 -6.835938 2.410156 -6.648438 2.539062 -6.484375 C 2.667969 -6.316406 2.871094 -6.175781 3.148438 -6.0625 C 3.304688 -6.003906 3.769531 -5.871094 4.542969 -5.660156 C 5.664062 -5.359375 6.445312 -5.117188 6.886719 -4.925781 C 7.328125 -4.734375 7.675781 -4.457031 7.929688 -4.09375 C 8.179688 -3.730469 8.304688 -3.28125 8.304688 -2.742188 C 8.304688 -2.214844 8.152344 -1.71875 7.84375 -1.253906 C 7.535156 -0.785156 7.09375 -0.425781 6.511719 -0.171875 C 5.933594 0.0820312 5.277344 0.210938 4.542969 0.210938 C 3.332031 0.210938 2.40625 -0.0429688 1.769531 -0.546875 C 1.136719 -1.046875 0.730469 -1.796875 0.554688 -2.785156 Z M 0.554688 -2.785156 "/>
</g>
<g id="glyph-1-14">
<path d="M 4.640625 -1.414062 L 4.867188 -0.015625 C 4.421875 0.0742188 4.023438 0.125 3.671875 0.125 C 3.097656 0.125 2.65625 0.03125 2.335938 -0.148438 C 2.023438 -0.332031 1.796875 -0.570312 1.671875 -0.867188 C 1.539062 -1.160156 1.476562 -1.785156 1.476562 -2.734375 L 1.476562 -8.101562 L 0.316406 -8.101562 L 0.316406 -9.335938 L 1.476562 -9.335938 L 1.476562 -11.644531 L 3.050781 -12.59375 L 3.050781 -9.335938 L 4.640625 -9.335938 L 4.640625 -8.101562 L 3.050781 -8.101562 L 3.050781 -2.644531 C 3.050781 -2.195312 3.078125 -1.902344 3.132812 -1.773438 C 3.1875 -1.644531 3.28125 -1.542969 3.40625 -1.46875 C 3.53125 -1.390625 3.710938 -1.351562 3.945312 -1.351562 C 4.121094 -1.351562 4.351562 -1.375 4.640625 -1.414062 Z M 4.640625 -1.414062 "/>
</g>
<g id="glyph-1-15">
<path d="M 0.746094 -6.355469 C 0.746094 -7.878906 0.902344 -9.105469 1.21875 -10.03125 C 1.53125 -10.960938 1.996094 -11.675781 2.613281 -12.179688 C 3.234375 -12.683594 4.011719 -12.9375 4.949219 -12.9375 C 5.640625 -12.9375 6.246094 -12.796875 6.765625 -12.519531 C 7.289062 -12.242188 7.71875 -11.839844 8.058594 -11.316406 C 8.398438 -10.792969 8.664062 -10.152344 8.859375 -9.398438 C 9.054688 -8.648438 9.148438 -7.632812 9.148438 -6.355469 C 9.148438 -4.84375 8.992188 -3.621094 8.683594 -2.695312 C 8.371094 -1.765625 7.910156 -1.046875 7.289062 -0.539062 C 6.671875 -0.0351562 5.890625 0.21875 4.949219 0.21875 C 3.707031 0.21875 2.730469 -0.226562 2.023438 -1.117188 C 1.171875 -2.1875 0.746094 -3.933594 0.746094 -6.355469 M 2.375 -6.355469 C 2.375 -4.238281 2.621094 -2.832031 3.117188 -2.132812 C 3.609375 -1.429688 4.222656 -1.082031 4.949219 -1.082031 C 5.675781 -1.082031 6.285156 -1.433594 6.78125 -2.136719 C 7.277344 -2.839844 7.523438 -4.246094 7.523438 -6.355469 C 7.523438 -8.476562 7.277344 -9.882812 6.78125 -10.582031 C 6.285156 -11.277344 5.667969 -11.628906 4.929688 -11.628906 C 4.203125 -11.628906 3.625 -11.320312 3.191406 -10.703125 C 2.644531 -9.917969 2.375 -8.46875 2.375 -6.355469 Z M 2.375 -6.355469 "/>
</g>
<g id="glyph-1-16">
<path d="M 9.0625 -1.519531 L 9.0625 0 L 0.546875 0 C 0.53125 -0.378906 0.59375 -0.746094 0.730469 -1.097656 C 0.945312 -1.679688 1.292969 -2.25 1.769531 -2.8125 C 2.25 -3.375 2.9375 -4.023438 3.839844 -4.765625 C 5.242188 -5.910156 6.1875 -6.820312 6.679688 -7.492188 C 7.171875 -8.164062 7.417969 -8.796875 7.417969 -9.394531 C 7.417969 -10.023438 7.195312 -10.550781 6.746094 -10.980469 C 6.296875 -11.414062 5.710938 -11.628906 4.992188 -11.628906 C 4.230469 -11.628906 3.621094 -11.398438 3.164062 -10.941406 C 2.707031 -10.484375 2.476562 -9.851562 2.46875 -9.042969 L 0.84375 -9.210938 C 0.953125 -10.421875 1.375 -11.347656 2.101562 -11.984375 C 2.828125 -12.621094 3.800781 -12.9375 5.027344 -12.9375 C 6.261719 -12.9375 7.242188 -12.59375 7.960938 -11.910156 C 8.683594 -11.222656 9.042969 -10.375 9.042969 -9.359375 C 9.042969 -8.84375 8.9375 -8.335938 8.726562 -7.839844 C 8.515625 -7.339844 8.167969 -6.816406 7.675781 -6.265625 C 7.1875 -5.714844 6.375 -4.960938 5.238281 -4 C 4.289062 -3.203125 3.679688 -2.660156 3.410156 -2.378906 C 3.140625 -2.09375 2.917969 -1.808594 2.742188 -1.519531 Z M 9.0625 -1.519531 "/>
</g>
<g id="glyph-1-17">
<path d="M 0.746094 -3.375 L 2.40625 -3.515625 C 2.53125 -2.707031 2.816406 -2.097656 3.265625 -1.691406 C 3.714844 -1.285156 4.253906 -1.082031 4.886719 -1.082031 C 5.648438 -1.082031 6.292969 -1.367188 6.820312 -1.941406 C 7.347656 -2.515625 7.609375 -3.277344 7.609375 -4.226562 C 7.609375 -5.128906 7.359375 -5.839844 6.851562 -6.363281 C 6.34375 -6.882812 5.679688 -7.144531 4.859375 -7.144531 C 4.351562 -7.144531 3.890625 -7.03125 3.480469 -6.796875 C 3.070312 -6.566406 2.746094 -6.265625 2.515625 -5.898438 L 1.027344 -6.089844 L 2.277344 -12.710938 L 8.683594 -12.710938 L 8.683594 -11.195312 L 3.542969 -11.195312 L 2.847656 -7.734375 C 3.621094 -8.273438 4.433594 -8.542969 5.28125 -8.542969 C 6.40625 -8.542969 7.355469 -8.152344 8.128906 -7.375 C 8.902344 -6.59375 9.289062 -5.59375 9.289062 -4.367188 C 9.289062 -3.203125 8.949219 -2.195312 8.269531 -1.34375 C 7.445312 -0.300781 6.316406 0.21875 4.886719 0.21875 C 3.714844 0.21875 2.757812 -0.109375 2.015625 -0.765625 C 1.277344 -1.421875 0.851562 -2.289062 0.746094 -3.375 Z M 0.746094 -3.375 "/>
</g>
<g id="glyph-1-18">
<path d="M 0.851562 -11.195312 L 0.851562 -12.71875 L 9.195312 -12.71875 L 9.195312 -11.488281 C 8.371094 -10.613281 7.558594 -9.453125 6.753906 -8.007812 C 5.949219 -6.558594 5.328125 -5.070312 4.886719 -3.542969 C 4.570312 -2.464844 4.367188 -1.28125 4.28125 0 L 2.65625 0 C 2.671875 -1.011719 2.871094 -2.238281 3.25 -3.671875 C 3.632812 -5.109375 4.179688 -6.492188 4.890625 -7.828125 C 5.601562 -9.160156 6.359375 -10.28125 7.164062 -11.195312 Z M 0.851562 -11.195312 "/>
</g>
<g id="glyph-1-19">
<path d="M 6.707031 0 L 5.125 0 L 5.125 -10.082031 C 4.742188 -9.71875 4.242188 -9.355469 3.625 -8.992188 C 3.007812 -8.628906 2.453125 -8.355469 1.960938 -8.171875 L 1.960938 -9.703125 C 2.84375 -10.117188 3.617188 -10.621094 4.28125 -11.214844 C 4.941406 -11.804688 5.410156 -12.378906 5.6875 -12.9375 L 6.707031 -12.9375 Z M 6.707031 0 "/>
</g>
<g id="glyph-1-20">
<path d="M 1.390625 0 L 1.390625 -12.882812 L 6.25 -12.882812 C 7.105469 -12.882812 7.757812 -12.84375 8.210938 -12.761719 C 8.84375 -12.65625 9.371094 -12.457031 9.800781 -12.160156 C 10.226562 -11.863281 10.570312 -11.449219 10.832031 -10.914062 C 11.09375 -10.382812 11.222656 -9.796875 11.222656 -9.15625 C 11.222656 -8.0625 10.875 -7.136719 10.179688 -6.375 C 9.480469 -5.617188 8.21875 -5.238281 6.398438 -5.238281 L 3.09375 -5.238281 L 3.09375 0 L 1.390625 0 M 3.09375 -6.757812 L 6.425781 -6.757812 C 7.527344 -6.757812 8.308594 -6.964844 8.773438 -7.375 C 9.234375 -7.785156 9.464844 -8.359375 9.464844 -9.105469 C 9.464844 -9.644531 9.328125 -10.105469 9.058594 -10.488281 C 8.785156 -10.875 8.425781 -11.125 7.980469 -11.25 C 7.691406 -11.324219 7.164062 -11.363281 6.390625 -11.363281 L 3.09375 -11.363281 Z M 3.09375 -6.757812 "/>
</g>
<g id="glyph-1-21">
<path d="M 1.167969 0 L 1.167969 -9.335938 L 2.59375 -9.335938 L 2.59375 -7.917969 C 2.957031 -8.582031 3.292969 -9.015625 3.597656 -9.226562 C 3.90625 -9.4375 4.246094 -9.546875 4.613281 -9.546875 C 5.148438 -9.546875 5.6875 -9.375 6.242188 -9.035156 L 5.695312 -7.566406 C 5.308594 -7.796875 4.921875 -7.910156 4.535156 -7.910156 C 4.1875 -7.910156 3.878906 -7.804688 3.601562 -7.597656 C 3.328125 -7.390625 3.132812 -7.101562 3.015625 -6.734375 C 2.839844 -6.171875 2.75 -5.554688 2.75 -4.886719 L 2.75 0 Z M 1.167969 0 "/>
</g>
<g id="glyph-1-22">
<path d="M 0.597656 -4.667969 C 0.597656 -6.394531 1.078125 -7.675781 2.039062 -8.507812 C 2.839844 -9.199219 3.820312 -9.546875 4.976562 -9.546875 C 6.257812 -9.546875 7.304688 -9.125 8.121094 -8.285156 C 8.933594 -7.441406 9.34375 -6.28125 9.34375 -4.796875 C 9.34375 -3.597656 9.164062 -2.652344 8.800781 -1.964844 C 8.441406 -1.277344 7.917969 -0.742188 7.230469 -0.359375 C 6.539062 0.0195312 5.789062 0.210938 4.976562 0.210938 C 3.667969 0.210938 2.613281 -0.207031 1.804688 -1.046875 C 1 -1.882812 0.597656 -3.089844 0.597656 -4.667969 M 2.222656 -4.667969 C 2.222656 -3.472656 2.484375 -2.578125 3.007812 -1.980469 C 3.527344 -1.386719 4.183594 -1.089844 4.976562 -1.089844 C 5.757812 -1.089844 6.414062 -1.390625 6.933594 -1.984375 C 7.457031 -2.585938 7.71875 -3.496094 7.71875 -4.71875 C 7.71875 -5.875 7.453125 -6.75 6.929688 -7.34375 C 6.40625 -7.9375 5.753906 -8.234375 4.976562 -8.234375 C 4.183594 -8.234375 3.527344 -7.9375 3.007812 -7.347656 C 2.484375 -6.753906 2.222656 -5.863281 2.222656 -4.667969 Z M 2.222656 -4.667969 "/>
</g>
<g id="glyph-1-23">
<path d="M 0.351562 0 L 0.351562 -1.28125 L 6.292969 -8.101562 C 5.617188 -8.070312 5.023438 -8.050781 4.507812 -8.050781 L 0.703125 -8.050781 L 0.703125 -9.335938 L 8.332031 -9.335938 L 8.332031 -8.289062 L 3.277344 -2.363281 L 2.304688 -1.28125 C 3.011719 -1.335938 3.675781 -1.363281 4.296875 -1.363281 L 8.613281 -1.363281 L 8.613281 0 Z M 0.351562 0 "/>
</g>
<g id="glyph-1-24">
<path d="M 1.1875 0 L 1.1875 -9.335938 L 2.609375 -9.335938 L 2.609375 -8.007812 C 3.296875 -9.03125 4.285156 -9.546875 5.582031 -9.546875 C 6.144531 -9.546875 6.660156 -9.445312 7.132812 -9.242188 C 7.605469 -9.039062 7.957031 -8.773438 8.191406 -8.445312 C 8.425781 -8.117188 8.589844 -7.726562 8.683594 -7.277344 C 8.742188 -6.984375 8.773438 -6.472656 8.773438 -5.738281 L 8.773438 0 L 7.1875 0 L 7.1875 -5.679688 C 7.1875 -6.320312 7.128906 -6.804688 7.003906 -7.125 C 6.882812 -7.441406 6.664062 -7.699219 6.351562 -7.886719 C 6.035156 -8.078125 5.667969 -8.171875 5.246094 -8.171875 C 4.574219 -8.171875 3.992188 -7.960938 3.503906 -7.53125 C 3.011719 -7.105469 2.769531 -6.292969 2.769531 -5.097656 L 2.769531 0 Z M 1.1875 0 "/>
</g>
<g id="glyph-1-25">
<path d="M 4.210938 3.789062 C 3.335938 2.6875 2.597656 1.398438 1.996094 -0.078125 C 1.390625 -1.554688 1.089844 -3.085938 1.089844 -4.667969 C 1.089844 -6.0625 1.316406 -7.398438 1.765625 -8.675781 C 2.292969 -10.15625 3.109375 -11.632812 4.210938 -13.105469 L 5.34375 -13.105469 C 4.632812 -11.886719 4.164062 -11.015625 3.9375 -10.492188 C 3.578125 -9.6875 3.296875 -8.839844 3.09375 -7.960938 C 2.839844 -6.867188 2.714844 -5.765625 2.714844 -4.65625 C 2.714844 -1.839844 3.589844 0.976562 5.34375 3.789062 Z M 4.210938 3.789062 "/>
</g>
<g id="glyph-1-26">
<path d="M 1.046875 -9.789062 C 1.046875 -10.710938 1.277344 -11.492188 1.742188 -12.136719 C 2.203125 -12.78125 2.875 -13.105469 3.753906 -13.105469 C 4.5625 -13.105469 5.230469 -12.816406 5.761719 -12.238281 C 6.292969 -11.660156 6.554688 -10.8125 6.554688 -9.695312 C 6.554688 -8.605469 6.289062 -7.765625 5.753906 -7.175781 C 5.214844 -6.585938 4.554688 -6.292969 3.769531 -6.292969 C 2.992188 -6.292969 2.34375 -6.582031 1.824219 -7.164062 C 1.304688 -7.742188 1.046875 -8.617188 1.046875 -9.789062 M 3.796875 -12.015625 C 3.402344 -12.015625 3.078125 -11.84375 2.816406 -11.503906 C 2.554688 -11.164062 2.425781 -10.539062 2.425781 -9.632812 C 2.425781 -8.804688 2.558594 -8.226562 2.820312 -7.886719 C 3.085938 -7.550781 3.410156 -7.382812 3.796875 -7.382812 C 4.195312 -7.382812 4.523438 -7.550781 4.785156 -7.890625 C 5.046875 -8.230469 5.175781 -8.851562 5.175781 -9.757812 C 5.175781 -10.585938 5.046875 -11.171875 4.78125 -11.507812 C 4.515625 -11.847656 4.1875 -12.015625 3.796875 -12.015625 M 3.804688 0.476562 L 10.855469 -13.105469 L 12.136719 -13.105469 L 5.117188 0.476562 L 3.804688 0.476562 M 9.378906 -3.023438 C 9.378906 -3.949219 9.609375 -4.734375 10.070312 -5.375 C 10.535156 -6.015625 11.207031 -6.335938 12.09375 -6.335938 C 12.902344 -6.335938 13.570312 -6.046875 14.101562 -5.472656 C 14.632812 -4.894531 14.898438 -4.046875 14.898438 -2.925781 C 14.898438 -1.835938 14.628906 -0.996094 14.09375 -0.410156 C 13.558594 0.179688 12.894531 0.472656 12.101562 0.476562 C 11.324219 0.472656 10.675781 0.183594 10.15625 -0.398438 C 9.636719 -0.984375 9.378906 -1.859375 9.378906 -3.023438 M 12.136719 -5.246094 C 11.738281 -5.246094 11.410156 -5.078125 11.148438 -4.738281 C 10.886719 -4.398438 10.757812 -3.773438 10.757812 -2.867188 C 10.757812 -2.042969 10.890625 -1.464844 11.152344 -1.125 C 11.417969 -0.785156 11.742188 -0.617188 12.128906 -0.617188 C 12.53125 -0.617188 12.867188 -0.785156 13.125 -1.125 C 13.386719 -1.464844 13.515625 -2.085938 13.515625 -2.988281 C 13.515625 -3.820312 13.386719 -4.40625 13.121094 -4.742188 C 12.859375 -5.078125 12.53125 -5.246094 12.136719 -5.246094 Z M 12.136719 -5.246094 "/>
</g>
<g id="glyph-1-27">
<path d="M 2.222656 3.789062 L 1.089844 3.789062 C 2.839844 0.976562 3.71875 -1.839844 3.71875 -4.65625 C 3.71875 -5.757812 3.589844 -6.851562 3.339844 -7.9375 C 3.140625 -8.816406 2.863281 -9.660156 2.503906 -10.46875 C 2.277344 -10.996094 1.804688 -11.875 1.089844 -13.105469 L 2.222656 -13.105469 C 3.324219 -11.632812 4.140625 -10.15625 4.667969 -8.675781 C 5.117188 -7.398438 5.34375 -6.0625 5.34375 -4.667969 C 5.34375 -3.085938 5.039062 -1.554688 4.433594 -0.078125 C 3.828125 1.398438 3.089844 2.6875 2.222656 3.789062 Z M 2.222656 3.789062 "/>
</g>
<g id="glyph-2-0">
<path d="M 5.769531 -3.929688 L 5.769531 -5.105469 L 10.015625 -5.113281 L 10.015625 -1.394531 C 9.363281 -0.875 8.691406 -0.484375 8 -0.222656 C 7.304688 0.0390625 6.59375 0.171875 5.867188 0.171875 C 4.882812 0.171875 3.988281 -0.0390625 3.183594 -0.460938 C 2.378906 -0.882812 1.769531 -1.492188 1.359375 -2.289062 C 0.949219 -3.085938 0.746094 -3.976562 0.746094 -4.960938 C 0.746094 -5.9375 0.949219 -6.847656 1.355469 -7.695312 C 1.765625 -8.539062 2.351562 -9.167969 3.117188 -9.578125 C 3.882812 -9.988281 4.765625 -10.191406 5.761719 -10.191406 C 6.488281 -10.191406 7.140625 -10.074219 7.726562 -9.839844 C 8.3125 -9.605469 8.773438 -9.277344 9.105469 -8.859375 C 9.4375 -8.441406 9.691406 -7.894531 9.863281 -7.21875 L 8.667969 -6.890625 C 8.515625 -7.402344 8.332031 -7.800781 8.109375 -8.09375 C 7.882812 -8.386719 7.566406 -8.617188 7.148438 -8.792969 C 6.734375 -8.96875 6.273438 -9.058594 5.769531 -9.058594 C 5.164062 -9.058594 4.640625 -8.964844 4.195312 -8.78125 C 3.753906 -8.597656 3.398438 -8.351562 3.128906 -8.054688 C 2.855469 -7.75 2.644531 -7.421875 2.496094 -7.0625 C 2.238281 -6.441406 2.113281 -5.769531 2.113281 -5.046875 C 2.113281 -4.152344 2.265625 -3.40625 2.574219 -2.804688 C 2.882812 -2.203125 3.328125 -1.753906 3.917969 -1.460938 C 4.503906 -1.171875 5.128906 -1.023438 5.789062 -1.023438 C 6.363281 -1.023438 6.925781 -1.136719 7.472656 -1.355469 C 8.019531 -1.578125 8.433594 -1.8125 8.714844 -2.0625 L 8.714844 -3.929688 Z M 5.769531 -3.929688 "/>
</g>
<g id="glyph-2-1">
<path d="M 5.679688 0 L 5.679688 -1.066406 C 5.117188 -0.246094 4.347656 0.164062 3.375 0.164062 C 2.949219 0.164062 2.546875 0.0820312 2.175781 -0.0820312 C 1.804688 -0.246094 1.53125 -0.453125 1.351562 -0.699219 C 1.171875 -0.949219 1.042969 -1.253906 0.96875 -1.613281 C 0.921875 -1.855469 0.894531 -2.238281 0.894531 -2.761719 L 0.894531 -7.257812 L 2.125 -7.257812 L 2.125 -3.234375 C 2.125 -2.589844 2.152344 -2.15625 2.203125 -1.933594 C 2.277344 -1.609375 2.441406 -1.355469 2.695312 -1.171875 C 2.945312 -0.988281 3.253906 -0.894531 3.625 -0.894531 C 3.992188 -0.894531 4.339844 -0.988281 4.664062 -1.179688 C 4.984375 -1.367188 5.214844 -1.625 5.347656 -1.953125 C 5.484375 -2.277344 5.550781 -2.75 5.550781 -3.371094 L 5.550781 -7.257812 L 6.78125 -7.257812 L 6.78125 0 L 5.679688 0 M 1.921875 -8.679688 L 1.921875 -10.082031 L 3.207031 -10.082031 L 3.207031 -8.679688 L 1.921875 -8.679688 M 4.46875 -8.679688 L 4.46875 -10.082031 L 5.757812 -10.082031 L 5.757812 -8.679688 Z M 4.46875 -8.679688 "/>
</g>
<g id="glyph-2-2">
<path d="M 0.894531 0 L 0.894531 -10.023438 L 2.125 -10.023438 L 2.125 0 Z M 0.894531 0 "/>
</g>
<g id="glyph-2-3">
<path d="M 3.609375 -1.101562 L 3.789062 -0.015625 C 3.441406 0.0585938 3.132812 0.09375 2.859375 0.09375 C 2.410156 0.09375 2.0625 0.0234375 1.820312 -0.117188 C 1.570312 -0.257812 1.398438 -0.441406 1.296875 -0.671875 C 1.199219 -0.902344 1.148438 -1.386719 1.148438 -2.125 L 1.148438 -6.304688 L 0.246094 -6.304688 L 0.246094 -7.257812 L 1.148438 -7.257812 L 1.148438 -9.058594 L 2.371094 -9.796875 L 2.371094 -7.257812 L 3.609375 -7.257812 L 3.609375 -6.304688 L 2.371094 -6.304688 L 2.371094 -2.058594 C 2.371094 -1.707031 2.394531 -1.480469 2.4375 -1.382812 C 2.480469 -1.28125 2.550781 -1.199219 2.648438 -1.140625 C 2.746094 -1.082031 2.886719 -1.054688 3.070312 -1.054688 C 3.207031 -1.054688 3.386719 -1.070312 3.609375 -1.101562 Z M 3.609375 -1.101562 "/>
</g>
<g id="glyph-2-4">
<path d="M 0.929688 -8.605469 L 0.929688 -10.023438 L 2.160156 -10.023438 L 2.160156 -8.605469 L 0.929688 -8.605469 M 0.929688 0 L 0.929688 -7.257812 L 2.160156 -7.257812 L 2.160156 0 Z M 0.929688 0 "/>
</g>
<g id="glyph-2-5">
<path d="M 0.695312 0.601562 L 1.894531 0.78125 C 1.945312 1.148438 2.082031 1.417969 2.3125 1.585938 C 2.617188 1.8125 3.03125 1.929688 3.5625 1.929688 C 4.132812 1.929688 4.570312 1.8125 4.882812 1.585938 C 5.191406 1.359375 5.398438 1.039062 5.507812 0.628906 C 5.574219 0.378906 5.601562 -0.148438 5.597656 -0.949219 C 5.0625 -0.316406 4.390625 0 3.589844 0 C 2.589844 0 1.820312 -0.359375 1.273438 -1.078125 C 0.726562 -1.800781 0.453125 -2.664062 0.453125 -3.671875 C 0.453125 -4.363281 0.578125 -5.003906 0.828125 -5.589844 C 1.078125 -6.175781 1.441406 -6.625 1.917969 -6.945312 C 2.394531 -7.265625 2.953125 -7.421875 3.59375 -7.421875 C 4.453125 -7.421875 5.160156 -7.078125 5.714844 -6.382812 L 5.714844 -7.257812 L 6.851562 -7.257812 L 6.851562 -0.984375 C 6.847656 0.144531 6.734375 0.945312 6.503906 1.417969 C 6.273438 1.890625 5.910156 2.261719 5.410156 2.535156 C 4.910156 2.808594 4.296875 2.945312 3.570312 2.945312 C 2.703125 2.945312 2.003906 2.75 1.46875 2.363281 C 0.9375 1.972656 0.679688 1.386719 0.695312 0.601562 M 1.714844 -3.757812 C 1.714844 -2.808594 1.90625 -2.113281 2.28125 -1.675781 C 2.660156 -1.238281 3.136719 -1.019531 3.703125 -1.019531 C 4.269531 -1.019531 4.742188 -1.234375 5.125 -1.671875 C 5.507812 -2.105469 5.699219 -2.789062 5.703125 -3.71875 C 5.699219 -4.609375 5.503906 -5.277344 5.109375 -5.726562 C 4.714844 -6.179688 4.242188 -6.40625 3.683594 -6.40625 C 3.136719 -6.40625 2.671875 -6.183594 2.289062 -5.738281 C 1.90625 -5.292969 1.714844 -4.632812 1.714844 -3.757812 Z M 1.714844 -3.757812 "/>
</g>
<g id="glyph-2-6">
<path d="M 5.890625 -2.335938 L 7.164062 -2.179688 C 6.964844 -1.4375 6.59375 -0.859375 6.050781 -0.453125 C 5.507812 -0.0429688 4.816406 0.164062 3.972656 0.164062 C 2.910156 0.164062 2.066406 -0.164062 1.445312 -0.816406 C 0.824219 -1.472656 0.511719 -2.386719 0.511719 -3.570312 C 0.511719 -4.789062 0.828125 -5.738281 1.457031 -6.414062 C 2.085938 -7.085938 2.902344 -7.421875 3.902344 -7.421875 C 4.875 -7.421875 5.667969 -7.09375 6.28125 -6.433594 C 6.898438 -5.773438 7.203125 -4.84375 7.203125 -3.644531 C 7.203125 -3.570312 7.203125 -3.460938 7.199219 -3.316406 L 1.785156 -3.316406 C 1.828125 -2.519531 2.054688 -1.90625 2.460938 -1.484375 C 2.867188 -1.058594 3.371094 -0.847656 3.976562 -0.847656 C 4.429688 -0.847656 4.816406 -0.964844 5.132812 -1.203125 C 5.453125 -1.441406 5.707031 -1.820312 5.890625 -2.335938 M 1.851562 -4.328125 L 5.90625 -4.328125 C 5.851562 -4.9375 5.695312 -5.394531 5.441406 -5.703125 C 5.050781 -6.175781 4.542969 -6.414062 3.917969 -6.414062 C 3.351562 -6.414062 2.875 -6.222656 2.492188 -5.84375 C 2.105469 -5.464844 1.894531 -4.960938 1.851562 -4.328125 Z M 1.851562 -4.328125 "/>
</g>
<g id="glyph-2-7">
</g>
<g id="glyph-2-8">
<path d="M -0.0195312 0 L 3.828125 -10.023438 L 5.257812 -10.023438 L 9.359375 0 L 7.847656 0 L 6.679688 -3.035156 L 2.488281 -3.035156 L 1.386719 0 L -0.0195312 0 M 2.871094 -4.117188 L 6.269531 -4.117188 L 5.222656 -6.890625 C 4.902344 -7.734375 4.667969 -8.425781 4.511719 -8.96875 C 4.382812 -8.328125 4.203125 -7.6875 3.972656 -7.054688 Z M 2.871094 -4.117188 "/>
</g>
<g id="glyph-2-9">
<path d="M 0.921875 0 L 0.921875 -7.257812 L 2.03125 -7.257812 L 2.03125 -6.226562 C 2.5625 -7.023438 3.332031 -7.421875 4.339844 -7.421875 C 4.777344 -7.421875 5.179688 -7.34375 5.546875 -7.1875 C 5.914062 -7.03125 6.1875 -6.824219 6.371094 -6.570312 C 6.554688 -6.3125 6.679688 -6.011719 6.753906 -5.660156 C 6.800781 -5.433594 6.820312 -5.035156 6.820312 -4.464844 L 6.820312 0 L 5.59375 0 L 5.59375 -4.414062 C 5.59375 -4.917969 5.542969 -5.292969 5.449219 -5.539062 C 5.351562 -5.789062 5.183594 -5.988281 4.9375 -6.136719 C 4.695312 -6.285156 4.410156 -6.355469 4.082031 -6.359375 C 3.558594 -6.355469 3.105469 -6.191406 2.722656 -5.859375 C 2.34375 -5.527344 2.152344 -4.894531 2.152344 -3.964844 L 2.152344 0 Z M 0.921875 0 "/>
</g>
<g id="glyph-2-10">
<path d="M 5.660156 -0.894531 C 5.203125 -0.507812 4.765625 -0.234375 4.34375 -0.0742188 C 3.921875 0.0859375 3.46875 0.164062 2.988281 0.164062 C 2.191406 0.164062 1.578125 -0.03125 1.148438 -0.421875 C 0.71875 -0.808594 0.507812 -1.308594 0.507812 -1.914062 C 0.507812 -2.269531 0.585938 -2.59375 0.75 -2.886719 C 0.910156 -3.183594 1.121094 -3.417969 1.382812 -3.59375 C 1.644531 -3.773438 1.941406 -3.90625 2.269531 -4 C 2.511719 -4.0625 2.875 -4.125 3.363281 -4.183594 C 4.355469 -4.300781 5.089844 -4.445312 5.558594 -4.609375 C 5.5625 -4.777344 5.5625 -4.882812 5.5625 -4.929688 C 5.5625 -5.429688 5.449219 -5.78125 5.214844 -5.988281 C 4.902344 -6.265625 4.433594 -6.40625 3.8125 -6.40625 C 3.234375 -6.40625 2.808594 -6.304688 2.53125 -6.101562 C 2.257812 -5.898438 2.054688 -5.539062 1.921875 -5.023438 L 0.71875 -5.1875 C 0.828125 -5.703125 1.007812 -6.121094 1.257812 -6.4375 C 1.507812 -6.753906 1.871094 -6.996094 2.34375 -7.167969 C 2.820312 -7.339844 3.367188 -7.421875 3.992188 -7.421875 C 4.613281 -7.421875 5.117188 -7.351562 5.503906 -7.203125 C 5.890625 -7.058594 6.175781 -6.875 6.359375 -6.65625 C 6.539062 -6.433594 6.667969 -6.15625 6.742188 -5.816406 C 6.78125 -5.609375 6.800781 -5.230469 6.800781 -4.683594 L 6.800781 -3.042969 C 6.800781 -1.898438 6.828125 -1.175781 6.878906 -0.871094 C 6.933594 -0.570312 7.035156 -0.277344 7.191406 0 L 5.90625 0 C 5.777344 -0.253906 5.695312 -0.554688 5.660156 -0.894531 M 5.558594 -3.644531 C 5.109375 -3.460938 4.441406 -3.304688 3.546875 -3.179688 C 3.042969 -3.105469 2.683594 -3.023438 2.476562 -2.933594 C 2.265625 -2.839844 2.101562 -2.707031 1.988281 -2.53125 C 1.875 -2.355469 1.820312 -2.164062 1.820312 -1.949219 C 1.820312 -1.621094 1.941406 -1.347656 2.191406 -1.128906 C 2.4375 -0.910156 2.804688 -0.800781 3.28125 -0.800781 C 3.753906 -0.800781 4.175781 -0.902344 4.546875 -1.109375 C 4.914062 -1.316406 5.1875 -1.601562 5.359375 -1.960938 C 5.492188 -2.238281 5.558594 -2.648438 5.558594 -3.191406 Z M 5.558594 -3.644531 "/>
</g>
<g id="glyph-2-11">
<path d="M 2.058594 0 L 0.914062 0 L 0.914062 -10.023438 L 2.148438 -10.023438 L 2.148438 -6.445312 C 2.664062 -7.097656 3.328125 -7.421875 4.136719 -7.421875 C 4.582031 -7.421875 5.003906 -7.332031 5.402344 -7.152344 C 5.800781 -6.972656 6.128906 -6.722656 6.386719 -6.394531 C 6.644531 -6.070312 6.847656 -5.675781 6.992188 -5.214844 C 7.140625 -4.753906 7.210938 -4.261719 7.210938 -3.738281 C 7.210938 -2.496094 6.90625 -1.535156 6.289062 -0.855469 C 5.671875 -0.175781 4.9375 0.164062 4.074219 0.164062 C 3.21875 0.164062 2.546875 -0.195312 2.058594 -0.910156 L 2.058594 0 M 2.042969 -3.683594 C 2.042969 -2.8125 2.164062 -2.183594 2.398438 -1.796875 C 2.785156 -1.164062 3.3125 -0.847656 3.972656 -0.847656 C 4.507812 -0.847656 4.972656 -1.082031 5.367188 -1.546875 C 5.757812 -2.015625 5.953125 -2.710938 5.953125 -3.636719 C 5.953125 -4.585938 5.765625 -5.285156 5.390625 -5.734375 C 5.015625 -6.1875 4.558594 -6.414062 4.027344 -6.414062 C 3.488281 -6.414062 3.023438 -6.179688 2.632812 -5.710938 C 2.238281 -5.246094 2.042969 -4.570312 2.042969 -3.683594 Z M 2.042969 -3.683594 "/>
</g>
<g id="glyph-2-12">
<path d="M 1.265625 -5.859375 L 1.265625 -7.257812 L 2.664062 -7.257812 L 2.664062 -5.859375 L 1.265625 -5.859375 M 1.265625 0 L 1.265625 -1.402344 L 2.664062 -1.402344 L 2.664062 0 Z M 1.265625 0 "/>
</g>
<g id="glyph-2-13">
<path d="M 5.214844 0 L 3.984375 0 L 3.984375 -7.839844 C 3.6875 -7.558594 3.300781 -7.277344 2.820312 -6.992188 C 2.339844 -6.710938 1.90625 -6.5 1.523438 -6.359375 L 1.523438 -7.546875 C 2.210938 -7.871094 2.8125 -8.261719 3.328125 -8.722656 C 3.84375 -9.183594 4.207031 -9.628906 4.421875 -10.0625 L 5.214844 -10.0625 Z M 5.214844 0 "/>
</g>
<g id="glyph-2-14">
<path d="M 0.664062 -8.710938 L 0.664062 -9.890625 L 7.148438 -9.890625 L 7.148438 -8.933594 C 6.511719 -8.253906 5.878906 -7.351562 5.253906 -6.226562 C 4.625 -5.101562 4.140625 -3.945312 3.800781 -2.753906 C 3.554688 -1.917969 3.398438 -0.996094 3.328125 0 L 2.0625 0 C 2.078125 -0.789062 2.234375 -1.742188 2.53125 -2.859375 C 2.824219 -3.972656 3.25 -5.050781 3.804688 -6.085938 C 4.359375 -7.125 4.945312 -8 5.570312 -8.710938 Z M 0.664062 -8.710938 "/>
</g>
<g id="glyph-2-15">
<path d="M 0.582031 -4.941406 C 0.582031 -6.128906 0.703125 -7.082031 0.945312 -7.804688 C 1.191406 -8.527344 1.554688 -9.082031 2.035156 -9.476562 C 2.515625 -9.867188 3.121094 -10.0625 3.847656 -10.0625 C 4.386719 -10.0625 4.859375 -9.953125 5.265625 -9.738281 C 5.667969 -9.519531 6.003906 -9.210938 6.269531 -8.800781 C 6.53125 -8.394531 6.738281 -7.898438 6.890625 -7.3125 C 7.039062 -6.726562 7.117188 -5.9375 7.117188 -4.941406 C 7.117188 -3.765625 6.996094 -2.816406 6.753906 -2.09375 C 6.511719 -1.371094 6.152344 -0.816406 5.671875 -0.421875 C 5.191406 -0.0273438 4.582031 0.171875 3.847656 0.171875 C 2.882812 0.171875 2.125 -0.175781 1.570312 -0.867188 C 0.910156 -1.703125 0.582031 -3.058594 0.582031 -4.941406 M 1.84375 -4.941406 C 1.84375 -3.296875 2.039062 -2.203125 2.421875 -1.65625 C 2.808594 -1.113281 3.285156 -0.839844 3.847656 -0.839844 C 4.414062 -0.839844 4.890625 -1.113281 5.273438 -1.660156 C 5.660156 -2.207031 5.851562 -3.300781 5.851562 -4.941406 C 5.851562 -6.59375 5.660156 -7.6875 5.273438 -8.230469 C 4.890625 -8.773438 4.410156 -9.042969 3.835938 -9.042969 C 3.269531 -9.042969 2.820312 -8.804688 2.480469 -8.328125 C 2.058594 -7.714844 1.84375 -6.585938 1.84375 -4.941406 Z M 1.84375 -4.941406 "/>
</g>
</g>
<clipPath id="clip-0">
<path clip-rule="nonzero" d="M 227 6.972656 L 229 6.972656 L 229 283.972656 L 227 283.972656 Z M 227 6.972656 "/>
</clipPath>
<clipPath id="clip-1">
<path clip-rule="nonzero" d="M 358 6.972656 L 360 6.972656 L 360 283.972656 L 358 283.972656 Z M 358 6.972656 "/>
</clipPath>
<clipPath id="clip-2">
<path clip-rule="nonzero" d="M 489 6.972656 L 491 6.972656 L 491 283.972656 L 489 283.972656 Z M 489 6.972656 "/>
</clipPath>
<clipPath id="clip-3">
<path clip-rule="nonzero" d="M 620 6.972656 L 622 6.972656 L 622 283.972656 L 620 283.972656 Z M 620 6.972656 "/>
</clipPath>
<clipPath id="clip-4">
<path clip-rule="nonzero" d="M 136.289062 207 L 713.027344 207 L 713.027344 210 L 136.289062 210 Z M 136.289062 207 "/>
</clipPath>
<clipPath id="clip-5">
<path clip-rule="nonzero" d="M 136.289062 81 L 713.027344 81 L 713.027344 84 L 136.289062 84 Z M 136.289062 81 "/>
</clipPath>
<clipPath id="clip-6">
<path clip-rule="nonzero" d="M 161 6.972656 L 164 6.972656 L 164 283.972656 L 161 283.972656 Z M 161 6.972656 "/>
</clipPath>
<clipPath id="clip-7">
<path clip-rule="nonzero" d="M 292 6.972656 L 295 6.972656 L 295 283.972656 L 292 283.972656 Z M 292 6.972656 "/>
</clipPath>
<clipPath id="clip-8">
<path clip-rule="nonzero" d="M 423 6.972656 L 426 6.972656 L 426 283.972656 L 423 283.972656 Z M 423 6.972656 "/>
</clipPath>
<clipPath id="clip-9">
<path clip-rule="nonzero" d="M 555 6.972656 L 557 6.972656 L 557 283.972656 L 555 283.972656 Z M 555 6.972656 "/>
</clipPath>
<clipPath id="clip-10">
<path clip-rule="nonzero" d="M 686 6.972656 L 688 6.972656 L 688 283.972656 L 686 283.972656 Z M 686 6.972656 "/>
</clipPath>
</defs>
<rect x="-72" y="-36" width="864" height="432" fill="rgb(100%, 100%, 100%)" fill-opacity="1"/>
<g clip-path="url(#clip-0)">
<path fill="none" stroke-width="0.678986" stroke-linecap="butt" stroke-linejoin="round" stroke="rgb(92.156863%, 92.156863%, 92.156863%)" stroke-opacity="1" stroke-miterlimit="10" d="M 228.042969 283.976562 L 228.042969 6.972656 "/>
</g>
<g clip-path="url(#clip-1)">
<path fill="none" stroke-width="0.678986" stroke-linecap="butt" stroke-linejoin="round" stroke="rgb(92.156863%, 92.156863%, 92.156863%)" stroke-opacity="1" stroke-miterlimit="10" d="M 359.117188 283.976562 L 359.117188 6.972656 "/>
</g>
<g clip-path="url(#clip-2)">
<path fill="none" stroke-width="0.678986" stroke-linecap="butt" stroke-linejoin="round" stroke="rgb(92.156863%, 92.156863%, 92.156863%)" stroke-opacity="1" stroke-miterlimit="10" d="M 490.195312 283.976562 L 490.195312 6.972656 "/>
</g>
<g clip-path="url(#clip-3)">
<path fill="none" stroke-width="0.678986" stroke-linecap="butt" stroke-linejoin="round" stroke="rgb(92.156863%, 92.156863%, 92.156863%)" stroke-opacity="1" stroke-miterlimit="10" d="M 621.273438 283.976562 L 621.273438 6.972656 "/>
</g>
<g clip-path="url(#clip-4)">
<path fill="none" stroke-width="1.357972" stroke-linecap="butt" stroke-linejoin="round" stroke="rgb(92.156863%, 92.156863%, 92.156863%)" stroke-opacity="1" stroke-miterlimit="10" d="M 136.289062 208.429688 L 713.027344 208.429688 "/>
</g>
<g clip-path="url(#clip-5)">
<path fill="none" stroke-width="1.357972" stroke-linecap="butt" stroke-linejoin="round" stroke="rgb(92.156863%, 92.156863%, 92.156863%)" stroke-opacity="1" stroke-miterlimit="10" d="M 136.289062 82.519531 L 713.027344 82.519531 "/>
</g>
<g clip-path="url(#clip-6)">
<path fill="none" stroke-width="1.357972" stroke-linecap="butt" stroke-linejoin="round" stroke="rgb(92.156863%, 92.156863%, 92.156863%)" stroke-opacity="1" stroke-miterlimit="10" d="M 162.503906 283.976562 L 162.503906 6.972656 "/>
</g>
<g clip-path="url(#clip-7)">
<path fill="none" stroke-width="1.357972" stroke-linecap="butt" stroke-linejoin="round" stroke="rgb(92.156863%, 92.156863%, 92.156863%)" stroke-opacity="1" stroke-miterlimit="10" d="M 293.582031 283.976562 L 293.582031 6.972656 "/>
</g>
<g clip-path="url(#clip-8)">
<path fill="none" stroke-width="1.357972" stroke-linecap="butt" stroke-linejoin="round" stroke="rgb(92.156863%, 92.156863%, 92.156863%)" stroke-opacity="1" stroke-miterlimit="10" d="M 424.65625 283.976562 L 424.65625 6.972656 "/>
</g>
<g clip-path="url(#clip-9)">
<path fill="none" stroke-width="1.357972" stroke-linecap="butt" stroke-linejoin="round" stroke="rgb(92.156863%, 92.156863%, 92.156863%)" stroke-opacity="1" stroke-miterlimit="10" d="M 555.734375 283.976562 L 555.734375 6.972656 "/>
</g>
<g clip-path="url(#clip-10)">
<path fill="none" stroke-width="1.357972" stroke-linecap="butt" stroke-linejoin="round" stroke="rgb(92.156863%, 92.156863%, 92.156863%)" stroke-opacity="1" stroke-miterlimit="10" d="M 686.8125 283.976562 L 686.8125 6.972656 "/>
</g>
<path fill-rule="nonzero" fill="rgb(0%, 43.137255%, 47.058824%)" fill-opacity="1" d="M 162.503906 139.179688 L 566.21875 139.179688 L 566.21875 25.859375 L 162.503906 25.859375 Z M 162.503906 139.179688 "/>
<path fill-rule="nonzero" fill="rgb(7.843137%, 30.980392%, 26.666667%)" fill-opacity="1" d="M 162.503906 265.089844 L 597.679688 265.089844 L 597.679688 151.769531 L 162.503906 151.769531 Z M 162.503906 265.089844 "/>
<path fill-rule="nonzero" fill="rgb(0%, 43.137255%, 47.058824%)" fill-opacity="1" stroke-width="0.533489" stroke-linecap="round" stroke-linejoin="round" stroke="rgb(100%, 100%, 100%)" stroke-opacity="1" stroke-miterlimit="10" d="M 550.277344 92.378906 L 582.164062 92.378906 L 582.0625 92.378906 L 582.472656 92.359375 L 582.875 92.277344 L 583.261719 92.132812 L 583.617188 91.925781 L 583.9375 91.664062 L 584.210938 91.355469 L 584.429688 91.007812 L 584.59375 90.628906 L 584.691406 90.230469 L 584.726562 89.820312 L 584.726562 75.222656 L 584.691406 74.808594 L 584.59375 74.410156 L 584.429688 74.03125 L 584.210938 73.683594 L 583.9375 73.375 L 583.617188 73.113281 L 583.261719 72.90625 L 582.875 72.761719 L 582.472656 72.679688 L 582.164062 72.660156 L 550.277344 72.660156 L 550.585938 72.679688 L 550.171875 72.664062 L 549.765625 72.710938 L 549.367188 72.828125 L 548.996094 73.003906 L 548.65625 73.238281 L 548.359375 73.523438 L 548.113281 73.851562 L 547.921875 74.21875 L 547.789062 74.609375 L 547.722656 75.015625 L 547.714844 75.222656 L 547.714844 89.820312 L 547.722656 89.613281 L 547.722656 90.023438 L 547.789062 90.429688 L 547.921875 90.824219 L 548.113281 91.1875 L 548.359375 91.515625 L 548.65625 91.800781 L 548.996094 92.035156 L 549.367188 92.214844 L 549.765625 92.328125 L 550.171875 92.378906 Z M 550.277344 92.378906 "/>
<g fill="rgb(100%, 100%, 100%)" fill-opacity="1">
<use xlink:href="#glyph-0-0" x="551.980469" y="88.113281"/>
<use xlink:href="#glyph-0-0" x="559.892502" y="88.113281"/>
<use xlink:href="#glyph-0-1" x="567.804536" y="88.113281"/>
</g>
<path fill-rule="nonzero" fill="rgb(7.843137%, 30.980392%, 26.666667%)" fill-opacity="1" stroke-width="0.533489" stroke-linecap="round" stroke-linejoin="round" stroke="rgb(100%, 100%, 100%)" stroke-opacity="1" stroke-miterlimit="10" d="M 581.734375 218.289062 L 613.621094 218.289062 L 613.519531 218.289062 L 613.929688 218.269531 L 614.335938 218.1875 L 614.71875 218.042969 L 615.078125 217.835938 L 615.394531 217.574219 L 615.667969 217.265625 L 615.890625 216.917969 L 616.050781 216.539062 L 616.148438 216.140625 L 616.183594 215.726562 L 616.183594 201.128906 L 616.148438 200.71875 L 616.050781 200.320312 L 615.890625 199.941406 L 615.667969 199.59375 L 615.394531 199.285156 L 615.078125 199.023438 L 614.71875 198.816406 L 614.335938 198.671875 L 613.929688 198.589844 L 613.621094 198.570312 L 581.734375 198.570312 L 582.042969 198.589844 L 581.632812 198.570312 L 581.222656 198.621094 L 580.828125 198.734375 L 580.453125 198.914062 L 580.113281 199.148438 L 579.816406 199.433594 L 579.570312 199.761719 L 579.378906 200.125 L 579.25 200.519531 L 579.183594 200.925781 L 579.175781 201.128906 L 579.175781 215.726562 L 579.183594 215.523438 L 579.183594 215.933594 L 579.25 216.339844 L 579.378906 216.730469 L 579.570312 217.097656 L 579.816406 217.425781 L 580.113281 217.710938 L 580.453125 217.945312 L 580.828125 218.121094 L 581.222656 218.238281 L 581.632812 218.289062 Z M 581.734375 218.289062 "/>
<g fill="rgb(100%, 100%, 100%)" fill-opacity="1">
<use xlink:href="#glyph-0-2" x="583.441406" y="214.019531"/>
<use xlink:href="#glyph-0-3" x="591.35344" y="214.019531"/>
<use xlink:href="#glyph-0-1" x="599.265473" y="214.019531"/>
</g>
<g fill="rgb(30.196078%, 30.196078%, 30.196078%)" fill-opacity="1">
<use xlink:href="#glyph-1-0" x="6.972656" y="215.371094"/>
<use xlink:href="#glyph-1-1" x="17.967773" y="215.371094"/>
<use xlink:href="#glyph-1-2" x="27.978516" y="215.371094"/>
<use xlink:href="#glyph-1-3" x="37.989258" y="215.371094"/>
<use xlink:href="#glyph-1-4" x="52.983398" y="215.371094"/>
<use xlink:href="#glyph-1-5" x="62.994141" y="215.371094"/>
<use xlink:href="#glyph-1-6" x="67.995117" y="215.371094"/>
<use xlink:href="#glyph-1-7" x="72.996094" y="215.371094"/>
<use xlink:href="#glyph-1-3" x="85.995117" y="215.371094"/>
<use xlink:href="#glyph-1-8" x="100.989258" y="215.371094"/>
<use xlink:href="#glyph-1-2" x="105.990234" y="215.371094"/>
<use xlink:href="#glyph-1-9" x="116.000977" y="215.371094"/>
<use xlink:href="#glyph-1-10" x="120" y="215.371094"/>
</g>
<g fill="rgb(30.196078%, 30.196078%, 30.196078%)" fill-opacity="1">
<use xlink:href="#glyph-1-0" x="13.960938" y="89.460938"/>
<use xlink:href="#glyph-1-1" x="24.956055" y="89.460938"/>
<use xlink:href="#glyph-1-2" x="34.966797" y="89.460938"/>
<use xlink:href="#glyph-1-3" x="44.977539" y="89.460938"/>
<use xlink:href="#glyph-1-4" x="59.97168" y="89.460938"/>
<use xlink:href="#glyph-1-5" x="69.982422" y="89.460938"/>
<use xlink:href="#glyph-1-6" x="74.983398" y="89.460938"/>
<use xlink:href="#glyph-1-11" x="79.984375" y="89.460938"/>
<use xlink:href="#glyph-1-2" x="91.990234" y="89.460938"/>
<use xlink:href="#glyph-1-9" x="102.000977" y="89.460938"/>
<use xlink:href="#glyph-1-12" x="106" y="89.460938"/>
<use xlink:href="#glyph-1-13" x="116.010742" y="89.460938"/>
<use xlink:href="#glyph-1-14" x="125.010742" y="89.460938"/>
</g>
<g fill="rgb(30.196078%, 30.196078%, 30.196078%)" fill-opacity="1">
<use xlink:href="#glyph-1-15" x="157.5" y="304.136719"/>
</g>
<g fill="rgb(30.196078%, 30.196078%, 30.196078%)" fill-opacity="1">
<use xlink:href="#glyph-1-16" x="283.570312" y="304.136719"/>
<use xlink:href="#glyph-1-17" x="293.581055" y="304.136719"/>
</g>
<g fill="rgb(30.196078%, 30.196078%, 30.196078%)" fill-opacity="1">
<use xlink:href="#glyph-1-17" x="414.644531" y="304.136719"/>
<use xlink:href="#glyph-1-15" x="424.655273" y="304.136719"/>
</g>
<g fill="rgb(30.196078%, 30.196078%, 30.196078%)" fill-opacity="1">
<use xlink:href="#glyph-1-18" x="545.722656" y="304.136719"/>
<use xlink:href="#glyph-1-17" x="555.733398" y="304.136719"/>
</g>
<g fill="rgb(30.196078%, 30.196078%, 30.196078%)" fill-opacity="1">
<use xlink:href="#glyph-1-19" x="671.796875" y="304.136719"/>
<use xlink:href="#glyph-1-15" x="681.807617" y="304.136719"/>
<use xlink:href="#glyph-1-15" x="691.818359" y="304.136719"/>
</g>
<g fill="rgb(0%, 0%, 0%)" fill-opacity="1">
<use xlink:href="#glyph-1-20" x="377.140625" y="326.296875"/>
<use xlink:href="#glyph-1-21" x="389.146484" y="326.296875"/>
<use xlink:href="#glyph-1-22" x="395.140625" y="326.296875"/>
<use xlink:href="#glyph-1-23" x="405.151367" y="326.296875"/>
<use xlink:href="#glyph-1-2" x="414.151367" y="326.296875"/>
<use xlink:href="#glyph-1-24" x="424.162109" y="326.296875"/>
<use xlink:href="#glyph-1-14" x="434.172852" y="326.296875"/>
<use xlink:href="#glyph-1-6" x="439.173828" y="326.296875"/>
<use xlink:href="#glyph-1-25" x="444.174805" y="326.296875"/>
<use xlink:href="#glyph-1-26" x="450.168945" y="326.296875"/>
<use xlink:href="#glyph-1-27" x="466.173828" y="326.296875"/>
</g>
<g fill="rgb(0%, 0%, 0%)" fill-opacity="1">
<use xlink:href="#glyph-2-0" x="577.585938" y="349.078125"/>
<use xlink:href="#glyph-2-1" x="588.475586" y="349.078125"/>
<use xlink:href="#glyph-2-2" x="596.261719" y="349.078125"/>
<use xlink:href="#glyph-2-3" x="599.37207" y="349.078125"/>
<use xlink:href="#glyph-2-4" x="603.261719" y="349.078125"/>
<use xlink:href="#glyph-2-5" x="606.37207" y="349.078125"/>
<use xlink:href="#glyph-2-6" x="614.158203" y="349.078125"/>
<use xlink:href="#glyph-2-7" x="621.944336" y="349.078125"/>
<use xlink:href="#glyph-2-8" x="625.833984" y="349.078125"/>
<use xlink:href="#glyph-2-9" x="635.171875" y="349.078125"/>
<use xlink:href="#glyph-2-5" x="642.958008" y="349.078125"/>
<use xlink:href="#glyph-2-10" x="650.744141" y="349.078125"/>
<use xlink:href="#glyph-2-11" x="658.530273" y="349.078125"/>
<use xlink:href="#glyph-2-6" x="666.316406" y="349.078125"/>
<use xlink:href="#glyph-2-9" x="674.102539" y="349.078125"/>
<use xlink:href="#glyph-2-12" x="681.888672" y="349.078125"/>
<use xlink:href="#glyph-2-7" x="685.77832" y="349.078125"/>
<use xlink:href="#glyph-2-13" x="689.667969" y="349.078125"/>
<use xlink:href="#glyph-2-14" x="697.454102" y="349.078125"/>
<use xlink:href="#glyph-2-15" x="705.240234" y="349.078125"/>
</g>
</svg>
